<?xml version="1.0" encoding="utf-8"?>
<!-- Generator: Adobe Illustrator 23.0.0, SVG Export Plug-In . SVG Version: 6.00 Build 0)  -->
<svg version="1.1" id="图层_1" xmlns="http://www.w3.org/2000/svg" xmlns:xlink="http://www.w3.org/1999/xlink" x="0px" y="0px"
	 viewBox="0 0 37.8 122.8" style="enable-background:new 0 0 37.8 122.8;" xml:space="preserve">
<style type="text/css">
	.st0{fill:#89D9D4;}
</style>
<g>
	<g id="图层_1-2">
		<path class="st0" d="M37.8,5.7v51.8c0,3.1-2.5,5.7-5.7,5.7H5.7c-3.1,0-5.7-2.5-5.7-5.7V5.7C0,2.5,2.5,0,5.7,0h26.4
			C35.2,0,37.8,2.5,37.8,5.7z"/>
		<path class="st0" d="M37.8,79v38.1c0,3.1-2.5,5.7-5.7,5.7H5.6c-3.1,0-5.7-2.5-5.7-5.7V79.4c0-3.3,2.7-6,6-6l0,0h26.1
			C35.2,73.4,37.8,75.9,37.8,79z"/>
	</g>
</g>
</svg>
