<?xml version="1.0" encoding="utf-8"?>
<!-- Generator: Adobe Illustrator 23.0.0, SVG Export Plug-In . SVG Version: 6.00 Build 0)  -->
<svg version="1.1" id="图层_1" xmlns="http://www.w3.org/2000/svg" xmlns:xlink="http://www.w3.org/1999/xlink" x="0px" y="0px"
	 viewBox="0 0 23.5 70.7" style="enable-background:new 0 0 23.5 70.7;" xml:space="preserve">
<style type="text/css">
	.st0{fill:#89D9D4;}
</style>
<g>
	<g id="图层_1-2">
		<path class="st0" d="M9,2v31c0,0.8-0.6,1.4-1.4,1.4H1.5C0.7,34.4,0,33.8,0,33V2c0-1.1,0.9-2,2-2l5.6,0C8.4,0,9,0.6,9,1.4V2z"/>
		<path class="st0" d="M9,41.7v27.5c0,0.8-0.6,1.4-1.4,1.4H2c-1.1,0-2-0.9-2-2V41.7c0-0.8,0.6-1.4,1.4-1.4h6.2C8.4,40.3,9,41,9,41.7
			z"/>
		<path class="st0" d="M23.5,2v18.6c0,0.8-0.6,1.4-1.4,1.4h-6.2c-0.8,0-1.4-0.6-1.4-1.4V0.9c0-0.5,0.4-0.9,0.9-0.9h6.2
			C22.6,0,23.5,0.9,23.5,2z"/>
		<path class="st0" d="M23.5,29.1v16.4c0,0.6-0.5,1.1-1.1,1.1h-6.7c-0.6,0-1.1-0.5-1.1-1.1V29.1c0-0.6,0.5-1.1,1.1-1.1h6.7
			C23,28,23.5,28.5,23.5,29.1z"/>
		<path class="st0" d="M23.5,56.8v11.8c0,1.1-0.9,2-2,2h-5c-1.1,0-2-0.9-2-2V54.3c0-0.8,0.6-1.4,1.4-1.4h6.2c0.8,0,1.4,0.6,1.4,1.4
			V56.8z"/>
	</g>
</g>
</svg>
