<svg xmlns="http://www.w3.org/2000/svg" viewBox="0 0 80 150"><defs><style>.cls-1{fill:#fff;}</style></defs><g id="图层_2" data-name="图层 2"><g id="图层_4" data-name="图层 4"><rect class="cls-1" x="0.5" y="87.31" width="29.13" height="62.17"/><path class="cls-1" d="M29.13,87.81V149H1V87.81H29.13m1-1H0V150H30.13V86.81Z"/><rect class="cls-1" x="0.5" y="0.5" width="29.13" height="64.29"/><path class="cls-1" d="M29.13,1V64.29H1V1H29.13m1-1H0V65.29H30.13V0Z"/><rect class="cls-1" x="50.37" y="87.33" width="29.13" height="62.17"/><path class="cls-1" d="M79,87.83V149H50.87V87.83H79m1-1H49.87V150H80V86.83Z"/><rect class="cls-1" x="50.37" y="0.53" width="29.13" height="64.29"/><path class="cls-1" d="M79,1V64.32H50.87V1H79m1-1H49.87V65.32H80V0Z"/></g></g></svg>