<svg xmlns="http://www.w3.org/2000/svg" viewBox="0 0 80 150"><defs><style>.cls-1{fill:#fff;}</style></defs><g id="图层_2" data-name="图层 2"><g id="图层_3" data-name="图层 3"><rect class="cls-1" x="50.52" y="0.5" width="28.98" height="36.76"/><path class="cls-1" d="M79,1V36.76H51V1H79m1-1H50V37.76H80V0Z"/><rect class="cls-1" x="50.52" y="57.2" width="28.98" height="40.32"/><path class="cls-1" d="M79,57.7V97H51V57.7H79m1-1H50V98H80V56.7Z"/><rect class="cls-1" x="0.5" y="87.32" width="28.98" height="62.18"/><path class="cls-1" d="M29,87.82V149H1V87.82H29m1-1H0V150H30V86.82Z"/><rect class="cls-1" x="50.31" y="116.59" width="28.98" height="32.91"/><path class="cls-1" d="M78.79,117.09V149h-28V117.09h28m1-1h-30V150h30V116.09Z"/><rect class="cls-1" x="0.5" y="0.5" width="28.98" height="64.3"/><path class="cls-1" d="M29,1V64.3H1V1H29m1-1H0V65.3H30V0Z"/></g></g></svg>