<svg xmlns="http://www.w3.org/2000/svg" viewBox="0 0 80 150"><defs><style>.cls-1{fill:#fff;}</style></defs><g id="图层_2" data-name="图层 2"><g id="图层_1-2" data-name="图层 1"><path class="cls-1" d="M50.74,150V115.33H79.79V150ZM1,150V115.33H30.05V150ZM51,93V58.29H80V93ZM1.21,93V58.29H30.26V93ZM51,35.67V1H80V35.67Zm-49.74,0V1H30.26V35.67Z" transform="translate(-0.5 -0.5)"/><path class="cls-1" d="M79.5,1.5V35.17h-28V1.5H79.5m-49.74,0V35.17h-28V1.5H29.76M79.5,58.79V92.46h-28V58.79H79.5m-49.74,0V92.46h-28V58.79H29.76m49.53,57V149.5H51.24V115.83H79.29m-49.74,0V149.5H1.5V115.83H29.55M80.5.5h-30V36.17H80.5V.5ZM30.76.5H.71V36.17H30.76V.5ZM80.5,57.79h-30V93.46H80.5V57.79Zm-49.74,0H.71V93.46H30.76V57.79Zm49.53,57H50.24V150.5H80.29V114.83Zm-49.74,0H.5V150.5H30.55V114.83Z" transform="translate(-0.5 -0.5)"/></g></g></svg>